<?xml version="1.0" encoding="UTF-8" standalone="no"?><!DOCTYPE svg PUBLIC "-//W3C//DTD SVG 1.1//EN" "http://www.w3.org/Graphics/SVG/1.1/DTD/svg11.dtd"><svg width="100%" height="100%" viewBox="0 0 261 261" version="1.1" xmlns="http://www.w3.org/2000/svg" xmlns:xlink="http://www.w3.org/1999/xlink" xml:space="preserve" xmlns:serif="http://www.serif.com/" style="fill-rule:evenodd;clip-rule:evenodd;stroke-linejoin:round;stroke-miterlimit:2;"><path d="M119.875,192.756l0,-110.006l-51.844,0l0,-14.719l124.725,0l0,14.719l-52.058,0l0,110.006l-20.823,0Z" style="fill:#595959;fill-rule:nonzero;"/><rect x="0" y="0" width="260.787" height="260.787" style="fill:none;"/><path d="M226.772,38.291c0,-2.361 -1.914,-4.275 -4.276,-4.275l-184.205,0c-2.361,0 -4.275,1.914 -4.275,4.275l0,184.205c0,2.362 1.914,4.276 4.275,4.276l184.205,0c2.362,0 4.276,-1.914 4.276,-4.276l0,-184.205Zm-184.206,4.275l0,175.655l175.655,0l0,-175.655l-175.655,0Z" style="fill:#595959;"/></svg>