<?xml version="1.0" encoding="UTF-8" standalone="no"?><!DOCTYPE svg PUBLIC "-//W3C//DTD SVG 1.1//EN" "http://www.w3.org/Graphics/SVG/1.1/DTD/svg11.dtd"><svg width="100%" height="100%" viewBox="0 0 261 261" version="1.1" xmlns="http://www.w3.org/2000/svg" xmlns:xlink="http://www.w3.org/1999/xlink" xml:space="preserve" xmlns:serif="http://www.serif.com/" style="fill-rule:evenodd;clip-rule:evenodd;stroke-linejoin:round;stroke-miterlimit:2;"><path d="M117.962,204.094l0,-129.028l-61.269,0l0,-17.264l147.401,0l0,17.264l-61.523,0l0,129.028l-24.609,0Z" style="fill-rule:nonzero;"/><rect x="22.677" y="22.677" width="215.433" height="215.433" style="fill:none;"/><rect x="0" y="0" width="260.787" height="260.787" style="fill:none;"/><path d="M238.11,27.455c0,-2.639 -2.139,-4.778 -4.778,-4.778l-205.877,0c-2.639,0 -4.778,2.139 -4.778,4.778l0,205.877c0,2.639 2.139,4.778 4.778,4.778l205.877,0c2.639,0 4.778,-2.139 4.778,-4.778l0,-205.877Zm-205.876,4.779l0,196.32l196.32,0l0,-196.32l-196.32,0Z"/></svg>